<svg width="1001" height="496" viewBox="0 0 1001 496" fill="none" xmlns="http://www.w3.org/2000/svg">
<g opacity="0.29827">
<path d="M1008.08 163.448L443.182 -356.858V-747.19L28.1096 -770C24.9043 -762.456 4.36709 -740.714 7.57176 -728.596C11.43 -714.102 30.8387 -718.735 36.4776 -709.409C43.0661 -698.42 31.7291 -653.749 28.3457 -640.86C21.8759 -616.445 7.09676 -596.665 2.82235 -572.25C-4.35982 -531.263 10.1824 -534.53 37.7242 -508.927C84.141 -465.742 46.9244 -420.952 58.6176 -370.223C68.1146 -328.878 109.605 -307.554 124.8 -266.211C136.553 -234.37 152.697 -226.233 177.746 -202.947C177.153 -217.084 164.51 -258.785 188.253 -255.102C211.817 -251.478 202.736 -216.669 207.247 -202.115C211.045 -189.997 237.933 -165.761 215.616 -154.593C208.196 -150.91 187.066 -165.582 178.577 -169.503C184.572 -150.791 180.774 -131.367 190.271 -113.487C201.608 -92.162 213.835 -100.359 228.853 -88.7754C244.344 -76.8355 242.683 -63.1137 235.797 -45.0554C228.615 -26.2247 221.196 -29.1352 232.592 -6.44342C240.843 9.95119 254.85 30.7421 266.9 43.2164C273.904 50.4634 281.502 52.1267 288.506 61.3932C294.323 69.1155 292.067 79.2142 299.012 86.1638C310.883 98.1037 331.006 98.282 340.384 113.904C350.831 131.309 338.96 144.437 369.706 142.833C371.309 177.643 377.897 209.185 377.541 243.994C394.695 250.825 422.414 242.687 440.399 239.063C458.266 263.18 481.355 246.429 501.774 259.558C510.678 265.26 508.837 279.517 514.239 284.506C525.339 294.723 533.529 288.308 547.301 291.872C557.51 294.486 565.404 301.97 575.138 304.703C584.338 307.257 599.475 301.258 606.301 309.396C614.492 319.138 600.78 336.958 613.127 344.799C623.395 351.333 638.115 335.77 648.088 338.027C659.721 340.7 693.079 371.174 701.271 381.212C710.59 392.677 719.969 414.062 725.25 428.793C733.501 451.841 732.373 463.127 749.408 479.998C760.27 490.75 749.942 491.522 767.63 494.67C779.204 496.749 794.518 488.374 806.212 487.067C830.549 484.394 855.122 489.027 879.102 484.453C901.421 480.176 922.729 473.166 945.64 469.899C965.465 467.048 1000.37 469.246 1017.94 459.801C1036.99 449.643 1038.71 426.654 1011.17 430.932C1008.97 416.26 1018.77 396.003 1007.85 385.847C1023.04 365.056 1028.56 350.384 1030.93 324.959C1032 313.792 1032.48 301.436 1038 292.05C1043.4 282.783 1058.59 277.259 1061.56 269.299C1066.13 256.943 1058.83 251.419 1053.25 244.528C1049.69 240.073 1039.54 242.212 1036.63 238.291C1031.23 231.103 1036.57 223.678 1033.6 216.431C1024.94 195.462 1014.61 187.205 1008.08 163.444C1008.26 167.424 1008.44 171.463 1008.2 175.384" stroke="white" stroke-width="2" stroke-linecap="round" stroke-linejoin="round"/>
</g>
<path d="M729.113 85.5809C726.201 107.908 743.288 115.984 762.227 120.289C769.771 122.003 774.205 127.571 774.977 135.517C776.515 151.368 776.654 158.579 759.925 160.132C746.752 161.354 733.13 160.486 719.905 160.486C702.87 160.486 685.109 158.12 672.447 171.996C664.822 180.352 657.589 194.686 661.291 206.35C665.787 220.511 687.957 227.071 699.54 233.797C715.471 243.047 728.426 249.346 730.352 269.567C731.426 280.837 731.072 287.588 722.738 295.067C716.523 300.644 709.251 298.179 703.259 302.327C697.29 306.459 698.832 317.452 698.832 323.577C698.832 336.266 692.889 351.732 678.114 351.732C670.328 351.732 664.96 354.729 660.583 361.295" stroke="white" stroke-width="2" stroke-linecap="round" stroke-linejoin="round"/>
<path fill-rule="evenodd" clip-rule="evenodd" d="M570 319C571.657 319 573 317.657 573 316C573 314.343 571.657 313 570 313C568.343 313 567 314.343 567 316C567 317.657 568.343 319 570 319Z" fill="#4AF6CD"/>
<path fill-rule="evenodd" clip-rule="evenodd" d="M664.5 370C668.09 370 671 367.09 671 363.5C671 359.91 668.09 357 664.5 357C660.91 357 658 359.91 658 363.5C658 367.09 660.91 370 664.5 370Z" fill="#4AF6CD"/>
<path fill-rule="evenodd" clip-rule="evenodd" d="M721 469C722.657 469 724 467.657 724 466C724 464.343 722.657 463 721 463C719.343 463 718 464.343 718 466C718 467.657 719.343 469 721 469Z" fill="#4AF6CD"/>
<path fill-rule="evenodd" clip-rule="evenodd" d="M361 228C362.657 228 364 226.657 364 225C364 223.343 362.657 222 361 222C359.343 222 358 223.343 358 225C358 226.657 359.343 228 361 228Z" fill="#4AF6CD"/>
<path fill-rule="evenodd" clip-rule="evenodd" d="M729.5 91C733.09 91 736 88.0899 736 84.5C736 80.9101 733.09 78 729.5 78C725.91 78 723 80.9101 723 84.5C723 88.0899 725.91 91 729.5 91Z" fill="#4AF6CD"/>
<path d="M467.414 357.784C468.15 357.784 468.779 357.891 469.302 358.104C469.824 358.307 470.331 358.627 470.822 359.064L469.99 359.992C469.574 359.661 469.163 359.421 468.758 359.272C468.363 359.112 467.936 359.032 467.478 359.032C466.902 359.032 466.427 359.165 466.054 359.432C465.68 359.699 465.494 360.088 465.494 360.6C465.494 360.92 465.558 361.192 465.686 361.416C465.814 361.629 466.048 361.827 466.39 362.008C466.742 362.189 467.248 362.381 467.91 362.584C468.603 362.797 469.179 363.027 469.638 363.272C470.096 363.517 470.464 363.859 470.742 364.296C471.03 364.723 471.174 365.267 471.174 365.928C471.174 366.568 471.014 367.133 470.694 367.624C470.384 368.115 469.931 368.499 469.334 368.776C468.747 369.053 468.048 369.192 467.238 369.192C465.712 369.192 464.464 368.717 463.494 367.768L464.326 366.84C464.774 367.203 465.227 367.48 465.686 367.672C466.144 367.853 466.656 367.944 467.222 367.944C467.904 367.944 468.47 367.779 468.918 367.448C469.366 367.107 469.59 366.616 469.59 365.976C469.59 365.613 469.52 365.315 469.382 365.08C469.243 364.835 469.003 364.616 468.662 364.424C468.331 364.232 467.846 364.04 467.206 363.848C466.075 363.507 465.248 363.096 464.726 362.616C464.203 362.136 463.942 361.485 463.942 360.664C463.942 360.109 464.086 359.613 464.374 359.176C464.672 358.739 465.083 358.397 465.606 358.152C466.139 357.907 466.742 357.784 467.414 357.784ZM476.501 360.376C477.685 360.376 478.602 360.771 479.253 361.56C479.914 362.349 480.245 363.421 480.245 364.776C480.245 365.651 480.095 366.424 479.797 367.096C479.498 367.757 479.066 368.275 478.501 368.648C477.935 369.011 477.263 369.192 476.485 369.192C475.301 369.192 474.378 368.797 473.717 368.008C473.055 367.219 472.725 366.147 472.725 364.792C472.725 363.917 472.874 363.149 473.173 362.488C473.471 361.816 473.903 361.299 474.469 360.936C475.034 360.563 475.711 360.376 476.501 360.376ZM476.501 361.56C475.039 361.56 474.309 362.637 474.309 364.792C474.309 366.936 475.034 368.008 476.485 368.008C477.935 368.008 478.661 366.931 478.661 364.776C478.661 362.632 477.941 361.56 476.501 361.56ZM488.948 369H487.684L487.572 367.688C487.252 368.211 486.884 368.595 486.468 368.84C486.052 369.075 485.546 369.192 484.948 369.192C484.212 369.192 483.636 368.968 483.22 368.52C482.804 368.072 482.596 367.437 482.596 366.616V360.568H484.068V366.456C484.068 367.032 484.17 367.443 484.372 367.688C484.575 367.923 484.906 368.04 485.364 368.04C486.186 368.04 486.89 367.555 487.476 366.584V360.568H488.948V369ZM496.245 368.616C495.69 369 495.061 369.192 494.357 369.192C493.642 369.192 493.082 368.989 492.677 368.584C492.282 368.168 492.085 367.571 492.085 366.792V361.704H490.613V360.568H492.085V358.664L493.557 358.488V360.568H495.557L495.397 361.704H493.557V366.728C493.557 367.165 493.631 367.485 493.781 367.688C493.941 367.88 494.202 367.976 494.565 367.976C494.895 367.976 495.269 367.864 495.685 367.64L496.245 368.616ZM501.738 360.376C502.506 360.376 503.103 360.605 503.53 361.064C503.967 361.523 504.186 362.152 504.186 362.952V369H502.714V363.16C502.714 362.563 502.597 362.141 502.362 361.896C502.138 361.651 501.807 361.528 501.37 361.528C500.933 361.528 500.543 361.656 500.202 361.912C499.861 362.168 499.541 362.531 499.242 363V369H497.77V357.192L499.242 357.032V361.736C499.903 360.829 500.735 360.376 501.738 360.376ZM514.179 357.784C514.915 357.784 515.545 357.891 516.067 358.104C516.59 358.307 517.097 358.627 517.587 359.064L516.755 359.992C516.339 359.661 515.929 359.421 515.523 359.272C515.129 359.112 514.702 359.032 514.243 359.032C513.667 359.032 513.193 359.165 512.819 359.432C512.446 359.699 512.259 360.088 512.259 360.6C512.259 360.92 512.323 361.192 512.451 361.416C512.579 361.629 512.814 361.827 513.155 362.008C513.507 362.189 514.014 362.381 514.675 362.584C515.369 362.797 515.945 363.027 516.403 363.272C516.862 363.517 517.23 363.859 517.507 364.296C517.795 364.723 517.939 365.267 517.939 365.928C517.939 366.568 517.779 367.133 517.459 367.624C517.15 368.115 516.697 368.499 516.099 368.776C515.513 369.053 514.814 369.192 514.003 369.192C512.478 369.192 511.23 368.717 510.259 367.768L511.091 366.84C511.539 367.203 511.993 367.48 512.451 367.672C512.91 367.853 513.422 367.944 513.987 367.944C514.67 367.944 515.235 367.779 515.683 367.448C516.131 367.107 516.355 366.616 516.355 365.976C516.355 365.613 516.286 365.315 516.147 365.08C516.009 364.835 515.769 364.616 515.427 364.424C515.097 364.232 514.611 364.04 513.971 363.848C512.841 363.507 512.014 363.096 511.491 362.616C510.969 362.136 510.707 361.485 510.707 360.664C510.707 360.109 510.851 359.613 511.139 359.176C511.438 358.739 511.849 358.397 512.371 358.152C512.905 357.907 513.507 357.784 514.179 357.784ZM524.066 360.376C524.834 360.376 525.431 360.605 525.858 361.064C526.295 361.523 526.514 362.152 526.514 362.952V369H525.042V363.16C525.042 362.563 524.925 362.141 524.69 361.896C524.466 361.651 524.135 361.528 523.698 361.528C523.261 361.528 522.871 361.656 522.53 361.912C522.189 362.168 521.869 362.531 521.57 363V369H520.098V357.192L521.57 357.032V361.736C522.231 360.829 523.063 360.376 524.066 360.376ZM532.641 360.376C533.825 360.376 534.742 360.771 535.393 361.56C536.054 362.349 536.385 363.421 536.385 364.776C536.385 365.651 536.236 366.424 535.937 367.096C535.638 367.757 535.206 368.275 534.641 368.648C534.076 369.011 533.404 369.192 532.625 369.192C531.441 369.192 530.518 368.797 529.857 368.008C529.196 367.219 528.865 366.147 528.865 364.792C528.865 363.917 529.014 363.149 529.313 362.488C529.612 361.816 530.044 361.299 530.609 360.936C531.174 360.563 531.852 360.376 532.641 360.376ZM532.641 361.56C531.18 361.56 530.449 362.637 530.449 364.792C530.449 366.936 531.174 368.008 532.625 368.008C534.076 368.008 534.801 366.931 534.801 364.776C534.801 362.632 534.081 361.56 532.641 361.56ZM542.481 360.376C542.78 360.376 543.057 360.408 543.313 360.472L543.041 361.912C542.785 361.848 542.54 361.816 542.305 361.816C541.782 361.816 541.361 362.008 541.041 362.392C540.721 362.776 540.47 363.373 540.289 364.184V369H538.817V360.568H540.081L540.225 362.28C540.449 361.651 540.753 361.176 541.137 360.856C541.521 360.536 541.969 360.376 542.481 360.376ZM550.872 364.536C550.872 364.781 550.862 365.032 550.84 365.288H545.464C545.528 366.216 545.763 366.899 546.168 367.336C546.574 367.773 547.096 367.992 547.736 367.992C548.142 367.992 548.515 367.933 548.856 367.816C549.198 367.699 549.555 367.512 549.928 367.256L550.568 368.136C549.672 368.84 548.691 369.192 547.624 369.192C546.451 369.192 545.534 368.808 544.872 368.04C544.222 367.272 543.896 366.216 543.896 364.872C543.896 363.997 544.035 363.224 544.312 362.552C544.6 361.869 545.006 361.336 545.528 360.952C546.062 360.568 546.686 360.376 547.4 360.376C548.52 360.376 549.379 360.744 549.976 361.48C550.574 362.216 550.872 363.235 550.872 364.536ZM549.416 364.104C549.416 363.272 549.251 362.637 548.92 362.2C548.59 361.763 548.094 361.544 547.432 361.544C546.227 361.544 545.571 362.429 545.464 364.2H549.416V364.104ZM559.41 356.184V370.568H559.058V356.184H559.41ZM578.237 369H576.765L576.381 364.024C576.221 362.072 576.131 360.573 576.109 359.528L573.725 367.752H572.301L569.789 359.512C569.789 360.845 569.72 362.387 569.581 364.136L569.213 369H567.773L568.685 357.976H570.733L573.053 365.992L575.261 357.976H577.325L578.237 369ZM586.434 367.032C586.434 367.373 586.493 367.629 586.61 367.8C586.728 367.96 586.904 368.083 587.138 368.168L586.802 369.192C586.365 369.139 586.013 369.016 585.746 368.824C585.48 368.632 585.282 368.333 585.154 367.928C584.589 368.771 583.752 369.192 582.642 369.192C581.81 369.192 581.154 368.957 580.674 368.488C580.194 368.019 579.954 367.405 579.954 366.648C579.954 365.752 580.274 365.064 580.914 364.584C581.565 364.104 582.482 363.864 583.666 363.864H584.962V363.24C584.962 362.643 584.818 362.216 584.53 361.96C584.242 361.704 583.8 361.576 583.202 361.576C582.584 361.576 581.826 361.725 580.93 362.024L580.562 360.952C581.608 360.568 582.578 360.376 583.474 360.376C584.466 360.376 585.208 360.621 585.698 361.112C586.189 361.592 586.434 362.28 586.434 363.176V367.032ZM582.978 368.088C583.821 368.088 584.482 367.651 584.962 366.776V364.84H583.858C582.301 364.84 581.522 365.416 581.522 366.568C581.522 367.069 581.645 367.448 581.89 367.704C582.136 367.96 582.498 368.088 582.978 368.088ZM590.981 369.192C590.437 369.192 590.005 369.032 589.685 368.712C589.376 368.381 589.221 367.923 589.221 367.336V357.176L590.693 357V367.304C590.693 367.539 590.731 367.709 590.805 367.816C590.891 367.923 591.029 367.976 591.221 367.976C591.424 367.976 591.605 367.944 591.765 367.88L592.149 368.904C591.797 369.096 591.408 369.192 590.981 369.192ZM595.461 360.568V369H593.989V360.568H595.461ZM594.709 356.52C595.018 356.52 595.269 356.616 595.461 356.808C595.653 357 595.749 357.24 595.749 357.528C595.749 357.816 595.653 358.056 595.461 358.248C595.269 358.429 595.018 358.52 594.709 358.52C594.41 358.52 594.165 358.429 593.973 358.248C593.781 358.056 593.685 357.816 593.685 357.528C593.685 357.24 593.781 357 593.973 356.808C594.165 356.616 594.41 356.52 594.709 356.52ZM602.36 360.376C603.32 360.376 604.083 360.765 604.648 361.544C605.214 362.312 605.496 363.389 605.496 364.776C605.496 365.651 605.363 366.424 605.096 367.096C604.83 367.757 604.446 368.275 603.944 368.648C603.443 369.011 602.856 369.192 602.184 369.192C601.299 369.192 600.552 368.819 599.944 368.072L599.8 369H598.504V357.176L599.976 357V361.624C600.584 360.792 601.379 360.376 602.36 360.376ZM601.832 368.024C602.483 368.024 602.99 367.763 603.352 367.24C603.726 366.707 603.912 365.885 603.912 364.776C603.912 363.635 603.742 362.813 603.4 362.312C603.059 361.8 602.574 361.544 601.944 361.544C601.198 361.544 600.542 361.981 599.976 362.856V366.888C600.2 367.24 600.472 367.517 600.792 367.72C601.123 367.923 601.47 368.024 601.832 368.024ZM614.276 369H613.012L612.9 367.688C612.58 368.211 612.212 368.595 611.796 368.84C611.38 369.075 610.874 369.192 610.276 369.192C609.54 369.192 608.964 368.968 608.548 368.52C608.132 368.072 607.924 367.437 607.924 366.616V360.568H609.396V366.456C609.396 367.032 609.498 367.443 609.7 367.688C609.903 367.923 610.234 368.04 610.692 368.04C611.514 368.04 612.218 367.555 612.804 366.584V360.568H614.276V369ZM617.701 366.968C618.021 366.968 618.288 367.075 618.501 367.288C618.714 367.501 618.821 367.763 618.821 368.072C618.821 368.403 618.725 368.781 618.533 369.208L617.461 371.656H616.405L617.045 369C616.906 368.893 616.794 368.76 616.709 368.6C616.634 368.44 616.597 368.264 616.597 368.072C616.597 367.763 616.704 367.501 616.917 367.288C617.13 367.075 617.392 366.968 617.701 366.968ZM629.331 357.784C629.992 357.784 630.547 357.869 630.995 358.04C631.454 358.211 631.918 358.488 632.387 358.872L631.555 359.848C630.883 359.304 630.174 359.032 629.427 359.032C628.51 359.032 627.768 359.384 627.203 360.088C626.648 360.792 626.371 361.923 626.371 363.48C626.371 364.995 626.648 366.115 627.203 366.84C627.758 367.555 628.494 367.912 629.411 367.912C629.88 367.912 630.291 367.832 630.643 367.672C630.995 367.512 631.368 367.288 631.763 367L632.515 367.96C632.174 368.312 631.736 368.605 631.203 368.84C630.67 369.075 630.056 369.192 629.363 369.192C628.467 369.192 627.667 368.973 626.963 368.536C626.27 368.088 625.726 367.437 625.331 366.584C624.947 365.72 624.755 364.685 624.755 363.48C624.755 362.275 624.958 361.245 625.363 360.392C625.768 359.528 626.318 358.877 627.011 358.44C627.704 358.003 628.478 357.784 629.331 357.784ZM640.3 369L639.468 366.232H635.292L634.46 369H632.924L636.46 357.976H638.38L641.9 369H640.3ZM635.66 365H639.1L637.388 359.24L635.66 365Z" fill="white"/>
<path d="M598.378 75.784C599.039 75.784 599.594 75.8693 600.042 76.04C600.501 76.2107 600.965 76.488 601.434 76.872L600.602 77.848C599.93 77.304 599.221 77.032 598.474 77.032C597.557 77.032 596.815 77.384 596.25 78.088C595.695 78.792 595.418 79.9227 595.418 81.48C595.418 82.9947 595.695 84.1147 596.25 84.84C596.805 85.5547 597.541 85.912 598.458 85.912C598.927 85.912 599.338 85.832 599.69 85.672C600.042 85.512 600.415 85.288 600.81 85L601.562 85.96C601.221 86.312 600.783 86.6053 600.25 86.84C599.717 87.0747 599.103 87.192 598.41 87.192C597.514 87.192 596.714 86.9733 596.01 86.536C595.317 86.088 594.773 85.4373 594.378 84.584C593.994 83.72 593.802 82.6853 593.802 81.48C593.802 80.2747 594.005 79.2453 594.41 78.392C594.815 77.528 595.365 76.8773 596.058 76.44C596.751 76.0027 597.525 75.784 598.378 75.784ZM609.401 87H608.137L608.025 85.688C607.705 86.2107 607.337 86.5947 606.921 86.84C606.505 87.0747 605.999 87.192 605.401 87.192C604.665 87.192 604.089 86.968 603.673 86.52C603.257 86.072 603.049 85.4373 603.049 84.616V78.568H604.521V84.456C604.521 85.032 604.623 85.4427 604.825 85.688C605.028 85.9227 605.359 86.04 605.817 86.04C606.639 86.04 607.343 85.5547 607.929 84.584V78.568H609.401V87ZM616.106 78.376C616.405 78.376 616.682 78.408 616.938 78.472L616.666 79.912C616.41 79.848 616.165 79.816 615.93 79.816C615.407 79.816 614.986 80.008 614.666 80.392C614.346 80.776 614.095 81.3733 613.914 82.184V87H612.442V78.568H613.706L613.85 80.28C614.074 79.6507 614.378 79.176 614.762 78.856C615.146 78.536 615.594 78.376 616.106 78.376ZM622.278 78.376C622.576 78.376 622.854 78.408 623.11 78.472L622.838 79.912C622.582 79.848 622.336 79.816 622.102 79.816C621.579 79.816 621.158 80.008 620.838 80.392C620.518 80.776 620.267 81.3733 620.086 82.184V87H618.614V78.568H619.878L620.022 80.28C620.246 79.6507 620.55 79.176 620.934 78.856C621.318 78.536 621.766 78.376 622.278 78.376ZM630.669 82.536C630.669 82.7813 630.659 83.032 630.637 83.288H625.261C625.325 84.216 625.56 84.8987 625.965 85.336C626.371 85.7733 626.893 85.992 627.533 85.992C627.939 85.992 628.312 85.9333 628.653 85.816C628.995 85.6987 629.352 85.512 629.725 85.256L630.365 86.136C629.469 86.84 628.488 87.192 627.421 87.192C626.248 87.192 625.331 86.808 624.669 86.04C624.019 85.272 623.693 84.216 623.693 82.872C623.693 81.9973 623.832 81.224 624.109 80.552C624.397 79.8693 624.803 79.336 625.325 78.952C625.859 78.568 626.483 78.376 627.197 78.376C628.317 78.376 629.176 78.744 629.773 79.48C630.371 80.216 630.669 81.2347 630.669 82.536ZM629.213 82.104C629.213 81.272 629.048 80.6373 628.717 80.2C628.387 79.7627 627.891 79.544 627.229 79.544C626.024 79.544 625.368 80.4293 625.261 82.2H629.213V82.104ZM636.988 78.376C637.756 78.376 638.353 78.6053 638.78 79.064C639.217 79.5227 639.436 80.152 639.436 80.952V87H637.964V81.16C637.964 80.5627 637.852 80.1413 637.628 79.896C637.404 79.6507 637.073 79.528 636.636 79.528C636.188 79.528 635.793 79.656 635.452 79.912C635.111 80.168 634.791 80.536 634.492 81.016V87H633.02V78.568H634.284L634.412 79.816C634.711 79.368 635.079 79.016 635.516 78.76C635.964 78.504 636.455 78.376 636.988 78.376ZM646.651 86.616C646.096 87 645.467 87.192 644.763 87.192C644.048 87.192 643.488 86.9893 643.083 86.584C642.688 86.168 642.491 85.5707 642.491 84.792V79.704H641.019V78.568H642.491V76.664L643.963 76.488V78.568H645.963L645.803 79.704H643.963V84.728C643.963 85.1653 644.038 85.4853 644.187 85.688C644.347 85.88 644.608 85.976 644.971 85.976C645.302 85.976 645.675 85.864 646.091 85.64L646.651 86.616ZM654.011 75.976V85.672H658.539L658.363 87H652.491V75.976H654.011ZM663.141 78.376C664.325 78.376 665.242 78.7707 665.893 79.56C666.554 80.3493 666.885 81.4213 666.885 82.776C666.885 83.6507 666.736 84.424 666.437 85.096C666.138 85.7573 665.706 86.2747 665.141 86.648C664.576 87.0107 663.904 87.192 663.125 87.192C661.941 87.192 661.018 86.7973 660.357 86.008C659.696 85.2187 659.365 84.1467 659.365 82.792C659.365 81.9173 659.514 81.1493 659.813 80.488C660.112 79.816 660.544 79.2987 661.109 78.936C661.674 78.5627 662.352 78.376 663.141 78.376ZM663.141 79.56C661.68 79.56 660.949 80.6373 660.949 82.792C660.949 84.936 661.674 86.008 663.125 86.008C664.576 86.008 665.301 84.9307 665.301 82.776C665.301 80.632 664.581 79.56 663.141 79.56ZM672.389 78.376C672.89 78.376 673.349 78.4507 673.765 78.6C674.181 78.7387 674.581 78.968 674.965 79.288L674.261 80.216C673.962 80.0027 673.669 79.848 673.381 79.752C673.104 79.6453 672.794 79.592 672.453 79.592C671.77 79.592 671.237 79.864 670.853 80.408C670.48 80.952 670.293 81.7573 670.293 82.824C670.293 83.8907 670.48 84.68 670.853 85.192C671.226 85.6933 671.76 85.944 672.453 85.944C672.784 85.944 673.088 85.896 673.365 85.8C673.642 85.6933 673.952 85.528 674.293 85.304L674.965 86.264C674.197 86.8827 673.338 87.192 672.389 87.192C671.248 87.192 670.346 86.808 669.685 86.04C669.034 85.272 668.709 84.2107 668.709 82.856C668.709 81.96 668.858 81.176 669.157 80.504C669.456 79.832 669.877 79.3093 670.421 78.936C670.976 78.5627 671.632 78.376 672.389 78.376ZM682.481 85.032C682.481 85.3733 682.54 85.6293 682.657 85.8C682.775 85.96 682.951 86.0827 683.185 86.168L682.849 87.192C682.412 87.1387 682.06 87.016 681.793 86.824C681.527 86.632 681.329 86.3333 681.201 85.928C680.636 86.7707 679.799 87.192 678.689 87.192C677.857 87.192 677.201 86.9573 676.721 86.488C676.241 86.0187 676.001 85.4053 676.001 84.648C676.001 83.752 676.321 83.064 676.961 82.584C677.612 82.104 678.529 81.864 679.713 81.864H681.009V81.24C681.009 80.6427 680.865 80.216 680.577 79.96C680.289 79.704 679.847 79.576 679.249 79.576C678.631 79.576 677.873 79.7253 676.977 80.024L676.609 78.952C677.655 78.568 678.625 78.376 679.521 78.376C680.513 78.376 681.255 78.6213 681.745 79.112C682.236 79.592 682.481 80.28 682.481 81.176V85.032ZM679.025 86.088C679.868 86.088 680.529 85.6507 681.009 84.776V82.84H679.905C678.348 82.84 677.569 83.416 677.569 84.568C677.569 85.0693 677.692 85.448 677.937 85.704C678.183 85.96 678.545 86.088 679.025 86.088ZM689.76 86.616C689.206 87 688.576 87.192 687.872 87.192C687.158 87.192 686.598 86.9893 686.192 86.584C685.798 86.168 685.6 85.5707 685.6 84.792V79.704H684.128V78.568H685.6V76.664L687.072 76.488V78.568H689.072L688.912 79.704H687.072V84.728C687.072 85.1653 687.147 85.4853 687.296 85.688C687.456 85.88 687.718 85.976 688.08 85.976C688.411 85.976 688.784 85.864 689.2 85.64L689.76 86.616ZM692.758 78.568V87H691.286V78.568H692.758ZM692.006 74.52C692.315 74.52 692.566 74.616 692.758 74.808C692.95 75 693.046 75.24 693.046 75.528C693.046 75.816 692.95 76.056 692.758 76.248C692.566 76.4293 692.315 76.52 692.006 76.52C691.707 76.52 691.462 76.4293 691.27 76.248C691.078 76.056 690.982 75.816 690.982 75.528C690.982 75.24 691.078 75 691.27 74.808C691.462 74.616 691.707 74.52 692.006 74.52ZM698.969 78.376C700.153 78.376 701.071 78.7707 701.721 79.56C702.383 80.3493 702.713 81.4213 702.713 82.776C702.713 83.6507 702.564 84.424 702.265 85.096C701.967 85.7573 701.535 86.2747 700.969 86.648C700.404 87.0107 699.732 87.192 698.953 87.192C697.769 87.192 696.847 86.7973 696.185 86.008C695.524 85.2187 695.193 84.1467 695.193 82.792C695.193 81.9173 695.343 81.1493 695.641 80.488C695.94 79.816 696.372 79.2987 696.937 78.936C697.503 78.5627 698.18 78.376 698.969 78.376ZM698.969 79.56C697.508 79.56 696.777 80.6373 696.777 82.792C696.777 84.936 697.503 86.008 698.953 86.008C700.404 86.008 701.129 84.9307 701.129 82.776C701.129 80.632 700.409 79.56 698.969 79.56ZM709.113 78.376C709.881 78.376 710.478 78.6053 710.905 79.064C711.342 79.5227 711.561 80.152 711.561 80.952V87H710.089V81.16C710.089 80.5627 709.977 80.1413 709.753 79.896C709.529 79.6507 709.198 79.528 708.761 79.528C708.313 79.528 707.918 79.656 707.577 79.912C707.236 80.168 706.916 80.536 706.617 81.016V87H705.145V78.568H706.409L706.537 79.816C706.836 79.368 707.204 79.016 707.641 78.76C708.089 78.504 708.58 78.376 709.113 78.376Z" fill="white"/>
</svg>
