<svg width="1001" height="496" viewBox="0 0 1001 496" fill="none" xmlns="http://www.w3.org/2000/svg">
<g opacity="0.29827">
<path d="M1008.08 163.448L443.182 -356.858V-747.19L28.1096 -770C24.9043 -762.456 4.36709 -740.714 7.57176 -728.596C11.43 -714.102 30.8387 -718.735 36.4776 -709.409C43.0661 -698.42 31.7291 -653.749 28.3457 -640.86C21.8759 -616.445 7.09676 -596.665 2.82235 -572.25C-4.35982 -531.263 10.1824 -534.53 37.7242 -508.927C84.141 -465.742 46.9244 -420.952 58.6176 -370.223C68.1146 -328.878 109.605 -307.554 124.8 -266.211C136.553 -234.37 152.697 -226.233 177.746 -202.947C177.153 -217.084 164.51 -258.785 188.253 -255.102C211.817 -251.478 202.736 -216.669 207.247 -202.115C211.045 -189.997 237.933 -165.761 215.616 -154.593C208.196 -150.91 187.066 -165.582 178.577 -169.503C184.572 -150.791 180.774 -131.367 190.271 -113.487C201.608 -92.162 213.835 -100.359 228.853 -88.7754C244.344 -76.8355 242.683 -63.1137 235.797 -45.0554C228.615 -26.2247 221.196 -29.1352 232.592 -6.44342C240.843 9.95119 254.85 30.7421 266.9 43.2164C273.904 50.4634 281.502 52.1267 288.506 61.3932C294.323 69.1155 292.067 79.2142 299.012 86.1638C310.883 98.1037 331.006 98.282 340.384 113.904C350.831 131.309 338.96 144.437 369.706 142.833C371.309 177.643 377.897 209.185 377.541 243.994C394.695 250.825 422.414 242.687 440.399 239.063C458.266 263.18 481.355 246.429 501.774 259.558C510.678 265.26 508.837 279.517 514.239 284.506C525.339 294.723 533.529 288.308 547.301 291.872C557.51 294.486 565.404 301.97 575.138 304.703C584.338 307.257 599.475 301.258 606.301 309.396C614.492 319.138 600.78 336.958 613.127 344.799C623.395 351.333 638.115 335.77 648.088 338.027C659.721 340.7 693.079 371.174 701.271 381.212C710.59 392.677 719.969 414.062 725.25 428.793C733.501 451.841 732.373 463.127 749.408 479.998C760.27 490.75 749.942 491.522 767.63 494.67C779.204 496.749 794.518 488.374 806.212 487.067C830.549 484.394 855.122 489.027 879.102 484.453C901.421 480.176 922.729 473.166 945.64 469.899C965.465 467.048 1000.37 469.246 1017.94 459.801C1036.99 449.643 1038.71 426.654 1011.17 430.932C1008.97 416.26 1018.77 396.003 1007.85 385.847C1023.04 365.056 1028.56 350.384 1030.93 324.959C1032 313.792 1032.48 301.436 1038 292.05C1043.4 282.783 1058.59 277.259 1061.56 269.299C1066.13 256.943 1058.83 251.419 1053.25 244.528C1049.69 240.073 1039.54 242.212 1036.63 238.291C1031.23 231.103 1036.57 223.678 1033.6 216.431C1024.94 195.462 1014.61 187.205 1008.08 163.444C1008.26 167.424 1008.44 171.463 1008.2 175.384" stroke="white" stroke-width="2" stroke-linecap="round" stroke-linejoin="round"/>
</g>
<path d="M729.113 85.5809C722.372 88.4699 713.424 92.2863 710.342 99.5702C708.103 104.863 700.089 111.623 695.29 114.622C674.604 127.551 644.895 134.113 623.927 118.695C619.301 115.293 611.171 111.205 605.334 111.08C603.324 111.038 586.03 109.083 584.438 111.789C582.229 115.544 582.078 125.909 581.251 130.559C579.015 143.138 579.991 153.091 571.246 163.585C562.551 174.019 551.555 172.337 541.319 178.991C534.228 183.6 537.866 202.617 537.866 209.626C537.866 225.72 518.626 226.49 505.195 227.953C485.563 230.091 469.518 231.608 455.79 216.355C446.46 205.988 440.872 201.923 426.394 201.923C417.704 201.923 406.11 199.955 397.53 202.1C390.118 203.953 380.539 213.651 374.421 218.657C370.046 222.237 364.668 221.089 362.557 227.422" stroke="white" stroke-width="2" stroke-linecap="round" stroke-linejoin="round"/>
<path fill-rule="evenodd" clip-rule="evenodd" d="M570 319C571.657 319 573 317.657 573 316C573 314.343 571.657 313 570 313C568.343 313 567 314.343 567 316C567 317.657 568.343 319 570 319Z" fill="#4AF6CD"/>
<path fill-rule="evenodd" clip-rule="evenodd" d="M661 363C662.657 363 664 361.657 664 360C664 358.343 662.657 357 661 357C659.343 357 658 358.343 658 360C658 361.657 659.343 363 661 363Z" fill="#4AF6CD"/>
<path fill-rule="evenodd" clip-rule="evenodd" d="M721 469C722.657 469 724 467.657 724 466C724 464.343 722.657 463 721 463C719.343 463 718 464.343 718 466C718 467.657 719.343 469 721 469Z" fill="#4AF6CD"/>
<path fill-rule="evenodd" clip-rule="evenodd" d="M364.5 235C368.09 235 371 232.09 371 228.5C371 224.91 368.09 222 364.5 222C360.91 222 358 224.91 358 228.5C358 232.09 360.91 235 364.5 235Z" fill="#4AF6CD"/>
<path fill-rule="evenodd" clip-rule="evenodd" d="M729.5 91C733.09 91 736 88.0899 736 84.5C736 80.9101 733.09 78 729.5 78C725.91 78 723 80.9101 723 84.5C723 88.0899 725.91 91 729.5 91Z" fill="#4AF6CD"/>
<path d="M178.359 234H176.327L171.847 224.64C171.911 225.376 171.959 226.059 171.991 226.688C172.034 227.307 172.055 228.059 172.055 228.944V234H170.631V222.976H172.615L177.143 232.352C177.111 232.075 177.069 231.589 177.015 230.896C176.962 230.203 176.935 229.568 176.935 228.992V222.976H178.359V234ZM184.641 225.376C185.825 225.376 186.742 225.771 187.393 226.56C188.054 227.349 188.385 228.421 188.385 229.776C188.385 230.651 188.236 231.424 187.937 232.096C187.638 232.757 187.206 233.275 186.641 233.648C186.076 234.011 185.404 234.192 184.625 234.192C183.441 234.192 182.518 233.797 181.857 233.008C181.196 232.219 180.865 231.147 180.865 229.792C180.865 228.917 181.014 228.149 181.313 227.488C181.612 226.816 182.044 226.299 182.609 225.936C183.174 225.563 183.852 225.376 184.641 225.376ZM184.641 226.56C183.18 226.56 182.449 227.637 182.449 229.792C182.449 231.936 183.174 233.008 184.625 233.008C186.076 233.008 186.801 231.931 186.801 229.776C186.801 227.632 186.081 226.56 184.641 226.56ZM194.481 225.376C194.78 225.376 195.057 225.408 195.313 225.472L195.041 226.912C194.785 226.848 194.54 226.816 194.305 226.816C193.782 226.816 193.361 227.008 193.041 227.392C192.721 227.776 192.47 228.373 192.289 229.184V234H190.817V225.568H192.081L192.225 227.28C192.449 226.651 192.753 226.176 193.137 225.856C193.521 225.536 193.969 225.376 194.481 225.376ZM201.245 233.616C200.69 234 200.061 234.192 199.357 234.192C198.642 234.192 198.082 233.989 197.677 233.584C197.282 233.168 197.085 232.571 197.085 231.792V226.704H195.613V225.568H197.085V223.664L198.557 223.488V225.568H200.557L200.397 226.704H198.557V231.728C198.557 232.165 198.631 232.485 198.781 232.688C198.941 232.88 199.202 232.976 199.565 232.976C199.895 232.976 200.269 232.864 200.685 232.64L201.245 233.616ZM206.738 225.376C207.506 225.376 208.103 225.605 208.53 226.064C208.967 226.523 209.186 227.152 209.186 227.952V234H207.714V228.16C207.714 227.563 207.597 227.141 207.362 226.896C207.138 226.651 206.807 226.528 206.37 226.528C205.933 226.528 205.543 226.656 205.202 226.912C204.861 227.168 204.541 227.531 204.242 228V234H202.77V222.192L204.242 222.032V226.736C204.903 225.829 205.735 225.376 206.738 225.376ZM219.179 222.784C219.915 222.784 220.545 222.891 221.067 223.104C221.59 223.307 222.097 223.627 222.587 224.064L221.755 224.992C221.339 224.661 220.929 224.421 220.523 224.272C220.129 224.112 219.702 224.032 219.243 224.032C218.667 224.032 218.193 224.165 217.819 224.432C217.446 224.699 217.259 225.088 217.259 225.6C217.259 225.92 217.323 226.192 217.451 226.416C217.579 226.629 217.814 226.827 218.155 227.008C218.507 227.189 219.014 227.381 219.675 227.584C220.369 227.797 220.945 228.027 221.403 228.272C221.862 228.517 222.23 228.859 222.507 229.296C222.795 229.723 222.939 230.267 222.939 230.928C222.939 231.568 222.779 232.133 222.459 232.624C222.15 233.115 221.697 233.499 221.099 233.776C220.513 234.053 219.814 234.192 219.003 234.192C217.478 234.192 216.23 233.717 215.259 232.768L216.091 231.84C216.539 232.203 216.993 232.48 217.451 232.672C217.91 232.853 218.422 232.944 218.987 232.944C219.67 232.944 220.235 232.779 220.683 232.448C221.131 232.107 221.355 231.616 221.355 230.976C221.355 230.613 221.286 230.315 221.147 230.08C221.009 229.835 220.769 229.616 220.427 229.424C220.097 229.232 219.611 229.04 218.971 228.848C217.841 228.507 217.014 228.096 216.491 227.616C215.969 227.136 215.707 226.485 215.707 225.664C215.707 225.109 215.851 224.613 216.139 224.176C216.438 223.739 216.849 223.397 217.371 223.152C217.905 222.907 218.507 222.784 219.179 222.784ZM229.066 225.376C229.834 225.376 230.431 225.605 230.858 226.064C231.295 226.523 231.514 227.152 231.514 227.952V234H230.042V228.16C230.042 227.563 229.925 227.141 229.69 226.896C229.466 226.651 229.135 226.528 228.698 226.528C228.261 226.528 227.871 226.656 227.53 226.912C227.189 227.168 226.869 227.531 226.57 228V234H225.098V222.192L226.57 222.032V226.736C227.231 225.829 228.063 225.376 229.066 225.376ZM237.641 225.376C238.825 225.376 239.742 225.771 240.393 226.56C241.054 227.349 241.385 228.421 241.385 229.776C241.385 230.651 241.236 231.424 240.937 232.096C240.638 232.757 240.206 233.275 239.641 233.648C239.076 234.011 238.404 234.192 237.625 234.192C236.441 234.192 235.518 233.797 234.857 233.008C234.196 232.219 233.865 231.147 233.865 229.792C233.865 228.917 234.014 228.149 234.313 227.488C234.612 226.816 235.044 226.299 235.609 225.936C236.174 225.563 236.852 225.376 237.641 225.376ZM237.641 226.56C236.18 226.56 235.449 227.637 235.449 229.792C235.449 231.936 236.174 233.008 237.625 233.008C239.076 233.008 239.801 231.931 239.801 229.776C239.801 227.632 239.081 226.56 237.641 226.56ZM247.481 225.376C247.78 225.376 248.057 225.408 248.313 225.472L248.041 226.912C247.785 226.848 247.54 226.816 247.305 226.816C246.782 226.816 246.361 227.008 246.041 227.392C245.721 227.776 245.47 228.373 245.289 229.184V234H243.817V225.568H245.081L245.225 227.28C245.449 226.651 245.753 226.176 246.137 225.856C246.521 225.536 246.969 225.376 247.481 225.376ZM255.872 229.536C255.872 229.781 255.862 230.032 255.84 230.288H250.464C250.528 231.216 250.763 231.899 251.168 232.336C251.574 232.773 252.096 232.992 252.736 232.992C253.142 232.992 253.515 232.933 253.856 232.816C254.198 232.699 254.555 232.512 254.928 232.256L255.568 233.136C254.672 233.84 253.691 234.192 252.624 234.192C251.451 234.192 250.534 233.808 249.872 233.04C249.222 232.272 248.896 231.216 248.896 229.872C248.896 228.997 249.035 228.224 249.312 227.552C249.6 226.869 250.006 226.336 250.528 225.952C251.062 225.568 251.686 225.376 252.4 225.376C253.52 225.376 254.379 225.744 254.976 226.48C255.574 227.216 255.872 228.235 255.872 229.536ZM254.416 229.104C254.416 228.272 254.251 227.637 253.92 227.2C253.59 226.763 253.094 226.544 252.432 226.544C251.227 226.544 250.571 227.429 250.464 229.2H254.416V229.104ZM264.41 221.184V235.568H264.058V221.184H264.41ZM283.237 234H281.765L281.381 229.024C281.221 227.072 281.131 225.573 281.109 224.528L278.725 232.752H277.301L274.789 224.512C274.789 225.845 274.72 227.387 274.581 229.136L274.213 234H272.773L273.685 222.976H275.733L278.053 230.992L280.261 222.976H282.325L283.237 234ZM291.434 232.032C291.434 232.373 291.493 232.629 291.61 232.8C291.728 232.96 291.904 233.083 292.138 233.168L291.802 234.192C291.365 234.139 291.013 234.016 290.746 233.824C290.48 233.632 290.282 233.333 290.154 232.928C289.589 233.771 288.752 234.192 287.642 234.192C286.81 234.192 286.154 233.957 285.674 233.488C285.194 233.019 284.954 232.405 284.954 231.648C284.954 230.752 285.274 230.064 285.914 229.584C286.565 229.104 287.482 228.864 288.666 228.864H289.962V228.24C289.962 227.643 289.818 227.216 289.53 226.96C289.242 226.704 288.8 226.576 288.202 226.576C287.584 226.576 286.826 226.725 285.93 227.024L285.562 225.952C286.608 225.568 287.578 225.376 288.474 225.376C289.466 225.376 290.208 225.621 290.698 226.112C291.189 226.592 291.434 227.28 291.434 228.176V232.032ZM287.978 233.088C288.821 233.088 289.482 232.651 289.962 231.776V229.84H288.858C287.301 229.84 286.522 230.416 286.522 231.568C286.522 232.069 286.645 232.448 286.89 232.704C287.136 232.96 287.498 233.088 287.978 233.088ZM295.981 234.192C295.437 234.192 295.005 234.032 294.685 233.712C294.376 233.381 294.221 232.923 294.221 232.336V222.176L295.693 222V232.304C295.693 232.539 295.731 232.709 295.805 232.816C295.891 232.923 296.029 232.976 296.221 232.976C296.424 232.976 296.605 232.944 296.765 232.88L297.149 233.904C296.797 234.096 296.408 234.192 295.981 234.192ZM300.461 225.568V234H298.989V225.568H300.461ZM299.709 221.52C300.018 221.52 300.269 221.616 300.461 221.808C300.653 222 300.749 222.24 300.749 222.528C300.749 222.816 300.653 223.056 300.461 223.248C300.269 223.429 300.018 223.52 299.709 223.52C299.41 223.52 299.165 223.429 298.973 223.248C298.781 223.056 298.685 222.816 298.685 222.528C298.685 222.24 298.781 222 298.973 221.808C299.165 221.616 299.41 221.52 299.709 221.52ZM307.36 225.376C308.32 225.376 309.083 225.765 309.648 226.544C310.214 227.312 310.496 228.389 310.496 229.776C310.496 230.651 310.363 231.424 310.096 232.096C309.83 232.757 309.446 233.275 308.944 233.648C308.443 234.011 307.856 234.192 307.184 234.192C306.299 234.192 305.552 233.819 304.944 233.072L304.8 234H303.504V222.176L304.976 222V226.624C305.584 225.792 306.379 225.376 307.36 225.376ZM306.832 233.024C307.483 233.024 307.99 232.763 308.352 232.24C308.726 231.707 308.912 230.885 308.912 229.776C308.912 228.635 308.742 227.813 308.4 227.312C308.059 226.8 307.574 226.544 306.944 226.544C306.198 226.544 305.542 226.981 304.976 227.856V231.888C305.2 232.24 305.472 232.517 305.792 232.72C306.123 232.923 306.47 233.024 306.832 233.024ZM319.276 234H318.012L317.9 232.688C317.58 233.211 317.212 233.595 316.796 233.84C316.38 234.075 315.874 234.192 315.276 234.192C314.54 234.192 313.964 233.968 313.548 233.52C313.132 233.072 312.924 232.437 312.924 231.616V225.568H314.396V231.456C314.396 232.032 314.498 232.443 314.7 232.688C314.903 232.923 315.234 233.04 315.692 233.04C316.514 233.04 317.218 232.555 317.804 231.584V225.568H319.276V234ZM322.701 231.968C323.021 231.968 323.288 232.075 323.501 232.288C323.714 232.501 323.821 232.763 323.821 233.072C323.821 233.403 323.725 233.781 323.533 234.208L322.461 236.656H321.405L322.045 234C321.906 233.893 321.794 233.76 321.709 233.6C321.634 233.44 321.597 233.264 321.597 233.072C321.597 232.763 321.704 232.501 321.917 232.288C322.13 232.075 322.392 231.968 322.701 231.968ZM334.331 222.784C334.992 222.784 335.547 222.869 335.995 223.04C336.454 223.211 336.918 223.488 337.387 223.872L336.555 224.848C335.883 224.304 335.174 224.032 334.427 224.032C333.51 224.032 332.768 224.384 332.203 225.088C331.648 225.792 331.371 226.923 331.371 228.48C331.371 229.995 331.648 231.115 332.203 231.84C332.758 232.555 333.494 232.912 334.411 232.912C334.88 232.912 335.291 232.832 335.643 232.672C335.995 232.512 336.368 232.288 336.763 232L337.515 232.96C337.174 233.312 336.736 233.605 336.203 233.84C335.67 234.075 335.056 234.192 334.363 234.192C333.467 234.192 332.667 233.973 331.963 233.536C331.27 233.088 330.726 232.437 330.331 231.584C329.947 230.72 329.755 229.685 329.755 228.48C329.755 227.275 329.958 226.245 330.363 225.392C330.768 224.528 331.318 223.877 332.011 223.44C332.704 223.003 333.478 222.784 334.331 222.784ZM345.3 234L344.468 231.232H340.292L339.46 234H337.924L341.46 222.976H343.38L346.9 234H345.3ZM340.66 230H344.1L342.388 224.24L340.66 230Z" fill="white"/>
<path d="M598.378 75.784C599.039 75.784 599.594 75.8693 600.042 76.04C600.501 76.2107 600.965 76.488 601.434 76.872L600.602 77.848C599.93 77.304 599.221 77.032 598.474 77.032C597.557 77.032 596.815 77.384 596.25 78.088C595.695 78.792 595.418 79.9227 595.418 81.48C595.418 82.9947 595.695 84.1147 596.25 84.84C596.805 85.5547 597.541 85.912 598.458 85.912C598.927 85.912 599.338 85.832 599.69 85.672C600.042 85.512 600.415 85.288 600.81 85L601.562 85.96C601.221 86.312 600.783 86.6053 600.25 86.84C599.717 87.0747 599.103 87.192 598.41 87.192C597.514 87.192 596.714 86.9733 596.01 86.536C595.317 86.088 594.773 85.4373 594.378 84.584C593.994 83.72 593.802 82.6853 593.802 81.48C593.802 80.2747 594.005 79.2453 594.41 78.392C594.815 77.528 595.365 76.8773 596.058 76.44C596.751 76.0027 597.525 75.784 598.378 75.784ZM609.401 87H608.137L608.025 85.688C607.705 86.2107 607.337 86.5947 606.921 86.84C606.505 87.0747 605.999 87.192 605.401 87.192C604.665 87.192 604.089 86.968 603.673 86.52C603.257 86.072 603.049 85.4373 603.049 84.616V78.568H604.521V84.456C604.521 85.032 604.623 85.4427 604.825 85.688C605.028 85.9227 605.359 86.04 605.817 86.04C606.639 86.04 607.343 85.5547 607.929 84.584V78.568H609.401V87ZM616.106 78.376C616.405 78.376 616.682 78.408 616.938 78.472L616.666 79.912C616.41 79.848 616.165 79.816 615.93 79.816C615.407 79.816 614.986 80.008 614.666 80.392C614.346 80.776 614.095 81.3733 613.914 82.184V87H612.442V78.568H613.706L613.85 80.28C614.074 79.6507 614.378 79.176 614.762 78.856C615.146 78.536 615.594 78.376 616.106 78.376ZM622.278 78.376C622.576 78.376 622.854 78.408 623.11 78.472L622.838 79.912C622.582 79.848 622.336 79.816 622.102 79.816C621.579 79.816 621.158 80.008 620.838 80.392C620.518 80.776 620.267 81.3733 620.086 82.184V87H618.614V78.568H619.878L620.022 80.28C620.246 79.6507 620.55 79.176 620.934 78.856C621.318 78.536 621.766 78.376 622.278 78.376ZM630.669 82.536C630.669 82.7813 630.659 83.032 630.637 83.288H625.261C625.325 84.216 625.56 84.8987 625.965 85.336C626.371 85.7733 626.893 85.992 627.533 85.992C627.939 85.992 628.312 85.9333 628.653 85.816C628.995 85.6987 629.352 85.512 629.725 85.256L630.365 86.136C629.469 86.84 628.488 87.192 627.421 87.192C626.248 87.192 625.331 86.808 624.669 86.04C624.019 85.272 623.693 84.216 623.693 82.872C623.693 81.9973 623.832 81.224 624.109 80.552C624.397 79.8693 624.803 79.336 625.325 78.952C625.859 78.568 626.483 78.376 627.197 78.376C628.317 78.376 629.176 78.744 629.773 79.48C630.371 80.216 630.669 81.2347 630.669 82.536ZM629.213 82.104C629.213 81.272 629.048 80.6373 628.717 80.2C628.387 79.7627 627.891 79.544 627.229 79.544C626.024 79.544 625.368 80.4293 625.261 82.2H629.213V82.104ZM636.988 78.376C637.756 78.376 638.353 78.6053 638.78 79.064C639.217 79.5227 639.436 80.152 639.436 80.952V87H637.964V81.16C637.964 80.5627 637.852 80.1413 637.628 79.896C637.404 79.6507 637.073 79.528 636.636 79.528C636.188 79.528 635.793 79.656 635.452 79.912C635.111 80.168 634.791 80.536 634.492 81.016V87H633.02V78.568H634.284L634.412 79.816C634.711 79.368 635.079 79.016 635.516 78.76C635.964 78.504 636.455 78.376 636.988 78.376ZM646.651 86.616C646.096 87 645.467 87.192 644.763 87.192C644.048 87.192 643.488 86.9893 643.083 86.584C642.688 86.168 642.491 85.5707 642.491 84.792V79.704H641.019V78.568H642.491V76.664L643.963 76.488V78.568H645.963L645.803 79.704H643.963V84.728C643.963 85.1653 644.038 85.4853 644.187 85.688C644.347 85.88 644.608 85.976 644.971 85.976C645.302 85.976 645.675 85.864 646.091 85.64L646.651 86.616ZM654.011 75.976V85.672H658.539L658.363 87H652.491V75.976H654.011ZM663.141 78.376C664.325 78.376 665.242 78.7707 665.893 79.56C666.554 80.3493 666.885 81.4213 666.885 82.776C666.885 83.6507 666.736 84.424 666.437 85.096C666.138 85.7573 665.706 86.2747 665.141 86.648C664.576 87.0107 663.904 87.192 663.125 87.192C661.941 87.192 661.018 86.7973 660.357 86.008C659.696 85.2187 659.365 84.1467 659.365 82.792C659.365 81.9173 659.514 81.1493 659.813 80.488C660.112 79.816 660.544 79.2987 661.109 78.936C661.674 78.5627 662.352 78.376 663.141 78.376ZM663.141 79.56C661.68 79.56 660.949 80.6373 660.949 82.792C660.949 84.936 661.674 86.008 663.125 86.008C664.576 86.008 665.301 84.9307 665.301 82.776C665.301 80.632 664.581 79.56 663.141 79.56ZM672.389 78.376C672.89 78.376 673.349 78.4507 673.765 78.6C674.181 78.7387 674.581 78.968 674.965 79.288L674.261 80.216C673.962 80.0027 673.669 79.848 673.381 79.752C673.104 79.6453 672.794 79.592 672.453 79.592C671.77 79.592 671.237 79.864 670.853 80.408C670.48 80.952 670.293 81.7573 670.293 82.824C670.293 83.8907 670.48 84.68 670.853 85.192C671.226 85.6933 671.76 85.944 672.453 85.944C672.784 85.944 673.088 85.896 673.365 85.8C673.642 85.6933 673.952 85.528 674.293 85.304L674.965 86.264C674.197 86.8827 673.338 87.192 672.389 87.192C671.248 87.192 670.346 86.808 669.685 86.04C669.034 85.272 668.709 84.2107 668.709 82.856C668.709 81.96 668.858 81.176 669.157 80.504C669.456 79.832 669.877 79.3093 670.421 78.936C670.976 78.5627 671.632 78.376 672.389 78.376ZM682.481 85.032C682.481 85.3733 682.54 85.6293 682.657 85.8C682.775 85.96 682.951 86.0827 683.185 86.168L682.849 87.192C682.412 87.1387 682.06 87.016 681.793 86.824C681.527 86.632 681.329 86.3333 681.201 85.928C680.636 86.7707 679.799 87.192 678.689 87.192C677.857 87.192 677.201 86.9573 676.721 86.488C676.241 86.0187 676.001 85.4053 676.001 84.648C676.001 83.752 676.321 83.064 676.961 82.584C677.612 82.104 678.529 81.864 679.713 81.864H681.009V81.24C681.009 80.6427 680.865 80.216 680.577 79.96C680.289 79.704 679.847 79.576 679.249 79.576C678.631 79.576 677.873 79.7253 676.977 80.024L676.609 78.952C677.655 78.568 678.625 78.376 679.521 78.376C680.513 78.376 681.255 78.6213 681.745 79.112C682.236 79.592 682.481 80.28 682.481 81.176V85.032ZM679.025 86.088C679.868 86.088 680.529 85.6507 681.009 84.776V82.84H679.905C678.348 82.84 677.569 83.416 677.569 84.568C677.569 85.0693 677.692 85.448 677.937 85.704C678.183 85.96 678.545 86.088 679.025 86.088ZM689.76 86.616C689.206 87 688.576 87.192 687.872 87.192C687.158 87.192 686.598 86.9893 686.192 86.584C685.798 86.168 685.6 85.5707 685.6 84.792V79.704H684.128V78.568H685.6V76.664L687.072 76.488V78.568H689.072L688.912 79.704H687.072V84.728C687.072 85.1653 687.147 85.4853 687.296 85.688C687.456 85.88 687.718 85.976 688.08 85.976C688.411 85.976 688.784 85.864 689.2 85.64L689.76 86.616ZM692.758 78.568V87H691.286V78.568H692.758ZM692.006 74.52C692.315 74.52 692.566 74.616 692.758 74.808C692.95 75 693.046 75.24 693.046 75.528C693.046 75.816 692.95 76.056 692.758 76.248C692.566 76.4293 692.315 76.52 692.006 76.52C691.707 76.52 691.462 76.4293 691.27 76.248C691.078 76.056 690.982 75.816 690.982 75.528C690.982 75.24 691.078 75 691.27 74.808C691.462 74.616 691.707 74.52 692.006 74.52ZM698.969 78.376C700.153 78.376 701.071 78.7707 701.721 79.56C702.383 80.3493 702.713 81.4213 702.713 82.776C702.713 83.6507 702.564 84.424 702.265 85.096C701.967 85.7573 701.535 86.2747 700.969 86.648C700.404 87.0107 699.732 87.192 698.953 87.192C697.769 87.192 696.847 86.7973 696.185 86.008C695.524 85.2187 695.193 84.1467 695.193 82.792C695.193 81.9173 695.343 81.1493 695.641 80.488C695.94 79.816 696.372 79.2987 696.937 78.936C697.503 78.5627 698.18 78.376 698.969 78.376ZM698.969 79.56C697.508 79.56 696.777 80.6373 696.777 82.792C696.777 84.936 697.503 86.008 698.953 86.008C700.404 86.008 701.129 84.9307 701.129 82.776C701.129 80.632 700.409 79.56 698.969 79.56ZM709.113 78.376C709.881 78.376 710.478 78.6053 710.905 79.064C711.342 79.5227 711.561 80.152 711.561 80.952V87H710.089V81.16C710.089 80.5627 709.977 80.1413 709.753 79.896C709.529 79.6507 709.198 79.528 708.761 79.528C708.313 79.528 707.918 79.656 707.577 79.912C707.236 80.168 706.916 80.536 706.617 81.016V87H705.145V78.568H706.409L706.537 79.816C706.836 79.368 707.204 79.016 707.641 78.76C708.089 78.504 708.58 78.376 709.113 78.376Z" fill="white"/>
</svg>
