<svg width="1001" height="496" viewBox="0 0 1001 496" fill="none" xmlns="http://www.w3.org/2000/svg">
<g opacity="0.29827">
<path d="M1008.08 163.448L443.182 -356.858V-747.19L28.1096 -770C24.9043 -762.456 4.36709 -740.714 7.57176 -728.596C11.43 -714.102 30.8387 -718.735 36.4776 -709.409C43.0661 -698.42 31.7291 -653.749 28.3457 -640.86C21.8759 -616.445 7.09676 -596.665 2.82235 -572.25C-4.35982 -531.263 10.1824 -534.53 37.7242 -508.927C84.141 -465.742 46.9244 -420.952 58.6176 -370.223C68.1146 -328.878 109.605 -307.554 124.8 -266.211C136.553 -234.37 152.697 -226.233 177.746 -202.947C177.153 -217.084 164.51 -258.785 188.253 -255.102C211.817 -251.478 202.736 -216.669 207.247 -202.115C211.045 -189.997 237.933 -165.761 215.616 -154.593C208.196 -150.91 187.066 -165.582 178.577 -169.503C184.572 -150.791 180.774 -131.367 190.271 -113.487C201.608 -92.162 213.835 -100.359 228.853 -88.7754C244.344 -76.8355 242.683 -63.1137 235.797 -45.0554C228.615 -26.2247 221.196 -29.1352 232.592 -6.44342C240.843 9.95119 254.85 30.7421 266.9 43.2164C273.904 50.4634 281.502 52.1267 288.506 61.3932C294.323 69.1155 292.067 79.2142 299.012 86.1638C310.883 98.1037 331.006 98.282 340.384 113.904C350.831 131.309 338.96 144.437 369.706 142.833C371.309 177.643 377.897 209.185 377.541 243.994C394.695 250.825 422.414 242.687 440.399 239.063C458.266 263.18 481.355 246.429 501.774 259.558C510.678 265.26 508.837 279.517 514.239 284.506C525.339 294.723 533.529 288.308 547.301 291.872C557.51 294.486 565.404 301.97 575.138 304.703C584.338 307.257 599.475 301.258 606.301 309.396C614.492 319.138 600.78 336.958 613.127 344.799C623.395 351.333 638.115 335.77 648.088 338.027C659.721 340.7 693.079 371.174 701.271 381.212C710.59 392.677 719.969 414.062 725.25 428.793C733.501 451.841 732.373 463.127 749.408 479.998C760.27 490.75 749.942 491.522 767.63 494.67C779.204 496.749 794.518 488.374 806.212 487.067C830.549 484.394 855.122 489.027 879.102 484.453C901.421 480.176 922.729 473.166 945.64 469.899C965.465 467.048 1000.37 469.246 1017.94 459.801C1036.99 449.643 1038.71 426.654 1011.17 430.932C1008.97 416.26 1018.77 396.003 1007.85 385.847C1023.04 365.056 1028.56 350.384 1030.93 324.959C1032 313.792 1032.48 301.436 1038 292.05C1043.4 282.783 1058.59 277.259 1061.56 269.299C1066.13 256.943 1058.83 251.419 1053.25 244.528C1049.69 240.073 1039.54 242.212 1036.63 238.291C1031.23 231.103 1036.57 223.678 1033.6 216.431C1024.94 195.462 1014.61 187.205 1008.08 163.444C1008.26 167.424 1008.44 171.463 1008.2 175.384" stroke="white" stroke-width="2" stroke-linecap="round" stroke-linejoin="round"/>
</g>
<path d="M729.113 87.1746C719.94 90.927 713.682 91.9287 709.988 101.164C705.768 111.715 706.673 122.881 706.801 134.101C706.99 150.751 723.499 155.048 738.321 156.944C749.964 158.433 770.663 152.859 777.456 165.798C781.037 172.62 779.313 180.327 780.82 187.579C782.01 193.306 784.431 198.578 781.351 204.225C773.729 218.2 753.652 215.293 743.102 226.183C732.217 237.418 725.488 254.947 730.175 270.63C734.831 286.207 752.968 295.719 763.289 307.108C769.355 313.801 779.648 321.521 781.529 330.925C782.85 337.534 782.114 346.003 781.617 352.706C780.984 361.253 775.542 369.463 772.143 377.232C768.811 384.848 763.667 399.886 768.07 407.867C771.39 413.884 770.698 420.152 770.55 426.991C770.299 438.505 758.161 439.142 749.654 442.84C737.851 447.972 726.902 453.989 722.738 466.48" stroke="white" stroke-width="2" stroke-linecap="round" stroke-linejoin="round"/>
<path fill-rule="evenodd" clip-rule="evenodd" d="M570 319C571.657 319 573 317.657 573 316C573 314.343 571.657 313 570 313C568.343 313 567 314.343 567 316C567 317.657 568.343 319 570 319Z" fill="#4AF6CD"/>
<path fill-rule="evenodd" clip-rule="evenodd" d="M661 363C662.657 363 664 361.657 664 360C664 358.343 662.657 357 661 357C659.343 357 658 358.343 658 360C658 361.657 659.343 363 661 363Z" fill="#4AF6CD"/>
<path fill-rule="evenodd" clip-rule="evenodd" d="M724.5 476C728.09 476 731 473.09 731 469.5C731 465.91 728.09 463 724.5 463C720.91 463 718 465.91 718 469.5C718 473.09 720.91 476 724.5 476Z" fill="#4AF6CD"/>
<path fill-rule="evenodd" clip-rule="evenodd" d="M365 228C366.657 228 368 226.657 368 225C368 223.343 366.657 222 365 222C363.343 222 362 223.343 362 225C362 226.657 363.343 228 365 228Z" fill="#4AF6CD"/>
<path fill-rule="evenodd" clip-rule="evenodd" d="M729.5 91C733.09 91 736 88.0899 736 84.5C736 80.9101 733.09 78 729.5 78C725.91 78 723 80.9101 723 84.5C723 88.0899 725.91 91 729.5 91Z" fill="#4AF6CD"/>
<path d="M548.021 460.976L547.845 462.192H543.573V465.792H547.285V467.008H543.573V470.784H548.149V472H542.053V460.976H548.021ZM556.028 470.032C556.028 470.373 556.087 470.629 556.204 470.8C556.321 470.96 556.497 471.083 556.732 471.168L556.396 472.192C555.959 472.139 555.607 472.016 555.34 471.824C555.073 471.632 554.876 471.333 554.748 470.928C554.183 471.771 553.345 472.192 552.236 472.192C551.404 472.192 550.748 471.957 550.268 471.488C549.788 471.019 549.548 470.405 549.548 469.648C549.548 468.752 549.868 468.064 550.508 467.584C551.159 467.104 552.076 466.864 553.26 466.864H554.556V466.24C554.556 465.643 554.412 465.216 554.124 464.96C553.836 464.704 553.393 464.576 552.796 464.576C552.177 464.576 551.42 464.725 550.524 465.024L550.156 463.952C551.201 463.568 552.172 463.376 553.068 463.376C554.06 463.376 554.801 463.621 555.292 464.112C555.783 464.592 556.028 465.28 556.028 466.176V470.032ZM552.572 471.088C553.415 471.088 554.076 470.651 554.556 469.776V467.84H553.452C551.895 467.84 551.116 468.416 551.116 469.568C551.116 470.069 551.239 470.448 551.484 470.704C551.729 470.96 552.092 471.088 552.572 471.088ZM561.183 463.376C561.759 463.376 562.276 463.456 562.735 463.616C563.194 463.776 563.631 464.016 564.047 464.336L563.423 465.264C563.039 465.019 562.671 464.837 562.319 464.72C561.978 464.603 561.615 464.544 561.231 464.544C560.751 464.544 560.372 464.645 560.095 464.848C559.818 465.04 559.679 465.307 559.679 465.648C559.679 465.989 559.807 466.256 560.063 466.448C560.33 466.64 560.804 466.827 561.487 467.008C562.426 467.243 563.124 467.563 563.583 467.968C564.052 468.373 564.287 468.928 564.287 469.632C564.287 470.464 563.962 471.099 563.311 471.536C562.671 471.973 561.887 472.192 560.959 472.192C559.679 472.192 558.618 471.824 557.775 471.088L558.559 470.192C559.274 470.736 560.063 471.008 560.927 471.008C561.482 471.008 561.919 470.896 562.239 470.672C562.57 470.437 562.735 470.123 562.735 469.728C562.735 469.44 562.676 469.211 562.559 469.04C562.442 468.859 562.239 468.704 561.951 468.576C561.663 468.437 561.242 468.293 560.687 468.144C559.791 467.909 559.14 467.595 558.735 467.2C558.34 466.805 558.143 466.304 558.143 465.696C558.143 465.259 558.271 464.864 558.527 464.512C558.794 464.149 559.156 463.872 559.615 463.68C560.084 463.477 560.607 463.376 561.183 463.376ZM570.62 471.616C570.065 472 569.436 472.192 568.732 472.192C568.017 472.192 567.457 471.989 567.052 471.584C566.657 471.168 566.46 470.571 566.46 469.792V464.704H564.988V463.568H566.46V461.664L567.932 461.488V463.568H569.932L569.772 464.704H567.932V469.728C567.932 470.165 568.006 470.485 568.156 470.688C568.316 470.88 568.577 470.976 568.94 470.976C569.27 470.976 569.644 470.864 570.06 470.64L570.62 471.616ZM579.179 460.784C579.915 460.784 580.545 460.891 581.067 461.104C581.59 461.307 582.097 461.627 582.587 462.064L581.755 462.992C581.339 462.661 580.929 462.421 580.523 462.272C580.129 462.112 579.702 462.032 579.243 462.032C578.667 462.032 578.193 462.165 577.819 462.432C577.446 462.699 577.259 463.088 577.259 463.6C577.259 463.92 577.323 464.192 577.451 464.416C577.579 464.629 577.814 464.827 578.155 465.008C578.507 465.189 579.014 465.381 579.675 465.584C580.369 465.797 580.945 466.027 581.403 466.272C581.862 466.517 582.23 466.859 582.507 467.296C582.795 467.723 582.939 468.267 582.939 468.928C582.939 469.568 582.779 470.133 582.459 470.624C582.15 471.115 581.697 471.499 581.099 471.776C580.513 472.053 579.814 472.192 579.003 472.192C577.478 472.192 576.23 471.717 575.259 470.768L576.091 469.84C576.539 470.203 576.993 470.48 577.451 470.672C577.91 470.853 578.422 470.944 578.987 470.944C579.67 470.944 580.235 470.779 580.683 470.448C581.131 470.107 581.355 469.616 581.355 468.976C581.355 468.613 581.286 468.315 581.147 468.08C581.009 467.835 580.769 467.616 580.427 467.424C580.097 467.232 579.611 467.04 578.971 466.848C577.841 466.507 577.014 466.096 576.491 465.616C575.969 465.136 575.707 464.485 575.707 463.664C575.707 463.109 575.851 462.613 576.139 462.176C576.438 461.739 576.849 461.397 577.371 461.152C577.905 460.907 578.507 460.784 579.179 460.784ZM589.066 463.376C589.834 463.376 590.431 463.605 590.858 464.064C591.295 464.523 591.514 465.152 591.514 465.952V472H590.042V466.16C590.042 465.563 589.925 465.141 589.69 464.896C589.466 464.651 589.135 464.528 588.698 464.528C588.261 464.528 587.871 464.656 587.53 464.912C587.189 465.168 586.869 465.531 586.57 466V472H585.098V460.192L586.57 460.032V464.736C587.231 463.829 588.063 463.376 589.066 463.376ZM597.641 463.376C598.825 463.376 599.742 463.771 600.393 464.56C601.054 465.349 601.385 466.421 601.385 467.776C601.385 468.651 601.236 469.424 600.937 470.096C600.638 470.757 600.206 471.275 599.641 471.648C599.076 472.011 598.404 472.192 597.625 472.192C596.441 472.192 595.518 471.797 594.857 471.008C594.196 470.219 593.865 469.147 593.865 467.792C593.865 466.917 594.014 466.149 594.313 465.488C594.612 464.816 595.044 464.299 595.609 463.936C596.174 463.563 596.852 463.376 597.641 463.376ZM597.641 464.56C596.18 464.56 595.449 465.637 595.449 467.792C595.449 469.936 596.174 471.008 597.625 471.008C599.076 471.008 599.801 469.931 599.801 467.776C599.801 465.632 599.081 464.56 597.641 464.56ZM607.481 463.376C607.78 463.376 608.057 463.408 608.313 463.472L608.041 464.912C607.785 464.848 607.54 464.816 607.305 464.816C606.782 464.816 606.361 465.008 606.041 465.392C605.721 465.776 605.47 466.373 605.289 467.184V472H603.817V463.568H605.081L605.225 465.28C605.449 464.651 605.753 464.176 606.137 463.856C606.521 463.536 606.969 463.376 607.481 463.376ZM615.872 467.536C615.872 467.781 615.862 468.032 615.84 468.288H610.464C610.528 469.216 610.763 469.899 611.168 470.336C611.574 470.773 612.096 470.992 612.736 470.992C613.142 470.992 613.515 470.933 613.856 470.816C614.198 470.699 614.555 470.512 614.928 470.256L615.568 471.136C614.672 471.84 613.691 472.192 612.624 472.192C611.451 472.192 610.534 471.808 609.872 471.04C609.222 470.272 608.896 469.216 608.896 467.872C608.896 466.997 609.035 466.224 609.312 465.552C609.6 464.869 610.006 464.336 610.528 463.952C611.062 463.568 611.686 463.376 612.4 463.376C613.52 463.376 614.379 463.744 614.976 464.48C615.574 465.216 615.872 466.235 615.872 467.536ZM614.416 467.104C614.416 466.272 614.251 465.637 613.92 465.2C613.59 464.763 613.094 464.544 612.432 464.544C611.227 464.544 610.571 465.429 610.464 467.2H614.416V467.104ZM624.41 459.184V473.568H624.058V459.184H624.41ZM643.237 472H641.765L641.381 467.024C641.221 465.072 641.131 463.573 641.109 462.528L638.725 470.752H637.301L634.789 462.512C634.789 463.845 634.72 465.387 634.581 467.136L634.213 472H632.773L633.685 460.976H635.733L638.053 468.992L640.261 460.976H642.325L643.237 472ZM651.434 470.032C651.434 470.373 651.493 470.629 651.61 470.8C651.728 470.96 651.904 471.083 652.138 471.168L651.802 472.192C651.365 472.139 651.013 472.016 650.746 471.824C650.48 471.632 650.282 471.333 650.154 470.928C649.589 471.771 648.752 472.192 647.642 472.192C646.81 472.192 646.154 471.957 645.674 471.488C645.194 471.019 644.954 470.405 644.954 469.648C644.954 468.752 645.274 468.064 645.914 467.584C646.565 467.104 647.482 466.864 648.666 466.864H649.962V466.24C649.962 465.643 649.818 465.216 649.53 464.96C649.242 464.704 648.8 464.576 648.202 464.576C647.584 464.576 646.826 464.725 645.93 465.024L645.562 463.952C646.608 463.568 647.578 463.376 648.474 463.376C649.466 463.376 650.208 463.621 650.698 464.112C651.189 464.592 651.434 465.28 651.434 466.176V470.032ZM647.978 471.088C648.821 471.088 649.482 470.651 649.962 469.776V467.84H648.858C647.301 467.84 646.522 468.416 646.522 469.568C646.522 470.069 646.645 470.448 646.89 470.704C647.136 470.96 647.498 471.088 647.978 471.088ZM655.981 472.192C655.437 472.192 655.005 472.032 654.685 471.712C654.376 471.381 654.221 470.923 654.221 470.336V460.176L655.693 460V470.304C655.693 470.539 655.731 470.709 655.805 470.816C655.891 470.923 656.029 470.976 656.221 470.976C656.424 470.976 656.605 470.944 656.765 470.88L657.149 471.904C656.797 472.096 656.408 472.192 655.981 472.192ZM660.461 463.568V472H658.989V463.568H660.461ZM659.709 459.52C660.018 459.52 660.269 459.616 660.461 459.808C660.653 460 660.749 460.24 660.749 460.528C660.749 460.816 660.653 461.056 660.461 461.248C660.269 461.429 660.018 461.52 659.709 461.52C659.41 461.52 659.165 461.429 658.973 461.248C658.781 461.056 658.685 460.816 658.685 460.528C658.685 460.24 658.781 460 658.973 459.808C659.165 459.616 659.41 459.52 659.709 459.52ZM667.36 463.376C668.32 463.376 669.083 463.765 669.648 464.544C670.214 465.312 670.496 466.389 670.496 467.776C670.496 468.651 670.363 469.424 670.096 470.096C669.83 470.757 669.446 471.275 668.944 471.648C668.443 472.011 667.856 472.192 667.184 472.192C666.299 472.192 665.552 471.819 664.944 471.072L664.8 472H663.504V460.176L664.976 460V464.624C665.584 463.792 666.379 463.376 667.36 463.376ZM666.832 471.024C667.483 471.024 667.99 470.763 668.352 470.24C668.726 469.707 668.912 468.885 668.912 467.776C668.912 466.635 668.742 465.813 668.4 465.312C668.059 464.8 667.574 464.544 666.944 464.544C666.198 464.544 665.542 464.981 664.976 465.856V469.888C665.2 470.24 665.472 470.517 665.792 470.72C666.123 470.923 666.47 471.024 666.832 471.024ZM679.276 472H678.012L677.9 470.688C677.58 471.211 677.212 471.595 676.796 471.84C676.38 472.075 675.874 472.192 675.276 472.192C674.54 472.192 673.964 471.968 673.548 471.52C673.132 471.072 672.924 470.437 672.924 469.616V463.568H674.396V469.456C674.396 470.032 674.498 470.443 674.7 470.688C674.903 470.923 675.234 471.04 675.692 471.04C676.514 471.04 677.218 470.555 677.804 469.584V463.568H679.276V472ZM682.701 469.968C683.021 469.968 683.288 470.075 683.501 470.288C683.714 470.501 683.821 470.763 683.821 471.072C683.821 471.403 683.725 471.781 683.533 472.208L682.461 474.656H681.405L682.045 472C681.906 471.893 681.794 471.76 681.709 471.6C681.634 471.44 681.597 471.264 681.597 471.072C681.597 470.763 681.704 470.501 681.917 470.288C682.13 470.075 682.392 469.968 682.701 469.968ZM694.331 460.784C694.992 460.784 695.547 460.869 695.995 461.04C696.454 461.211 696.918 461.488 697.387 461.872L696.555 462.848C695.883 462.304 695.174 462.032 694.427 462.032C693.51 462.032 692.768 462.384 692.203 463.088C691.648 463.792 691.371 464.923 691.371 466.48C691.371 467.995 691.648 469.115 692.203 469.84C692.758 470.555 693.494 470.912 694.411 470.912C694.88 470.912 695.291 470.832 695.643 470.672C695.995 470.512 696.368 470.288 696.763 470L697.515 470.96C697.174 471.312 696.736 471.605 696.203 471.84C695.67 472.075 695.056 472.192 694.363 472.192C693.467 472.192 692.667 471.973 691.963 471.536C691.27 471.088 690.726 470.437 690.331 469.584C689.947 468.72 689.755 467.685 689.755 466.48C689.755 465.275 689.958 464.245 690.363 463.392C690.768 462.528 691.318 461.877 692.011 461.44C692.704 461.003 693.478 460.784 694.331 460.784ZM705.3 472L704.468 469.232H700.292L699.46 472H697.924L701.46 460.976H703.38L706.9 472H705.3ZM700.66 468H704.1L702.388 462.24L700.66 468Z" fill="white"/>
<path d="M598.378 75.784C599.039 75.784 599.594 75.8693 600.042 76.04C600.501 76.2107 600.965 76.488 601.434 76.872L600.602 77.848C599.93 77.304 599.221 77.032 598.474 77.032C597.557 77.032 596.815 77.384 596.25 78.088C595.695 78.792 595.418 79.9227 595.418 81.48C595.418 82.9947 595.695 84.1147 596.25 84.84C596.805 85.5547 597.541 85.912 598.458 85.912C598.927 85.912 599.338 85.832 599.69 85.672C600.042 85.512 600.415 85.288 600.81 85L601.562 85.96C601.221 86.312 600.783 86.6053 600.25 86.84C599.717 87.0747 599.103 87.192 598.41 87.192C597.514 87.192 596.714 86.9733 596.01 86.536C595.317 86.088 594.773 85.4373 594.378 84.584C593.994 83.72 593.802 82.6853 593.802 81.48C593.802 80.2747 594.005 79.2453 594.41 78.392C594.815 77.528 595.365 76.8773 596.058 76.44C596.751 76.0027 597.525 75.784 598.378 75.784ZM609.401 87H608.137L608.025 85.688C607.705 86.2107 607.337 86.5947 606.921 86.84C606.505 87.0747 605.999 87.192 605.401 87.192C604.665 87.192 604.089 86.968 603.673 86.52C603.257 86.072 603.049 85.4373 603.049 84.616V78.568H604.521V84.456C604.521 85.032 604.623 85.4427 604.825 85.688C605.028 85.9227 605.359 86.04 605.817 86.04C606.639 86.04 607.343 85.5547 607.929 84.584V78.568H609.401V87ZM616.106 78.376C616.405 78.376 616.682 78.408 616.938 78.472L616.666 79.912C616.41 79.848 616.165 79.816 615.93 79.816C615.407 79.816 614.986 80.008 614.666 80.392C614.346 80.776 614.095 81.3733 613.914 82.184V87H612.442V78.568H613.706L613.85 80.28C614.074 79.6507 614.378 79.176 614.762 78.856C615.146 78.536 615.594 78.376 616.106 78.376ZM622.278 78.376C622.576 78.376 622.854 78.408 623.11 78.472L622.838 79.912C622.582 79.848 622.336 79.816 622.102 79.816C621.579 79.816 621.158 80.008 620.838 80.392C620.518 80.776 620.267 81.3733 620.086 82.184V87H618.614V78.568H619.878L620.022 80.28C620.246 79.6507 620.55 79.176 620.934 78.856C621.318 78.536 621.766 78.376 622.278 78.376ZM630.669 82.536C630.669 82.7813 630.659 83.032 630.637 83.288H625.261C625.325 84.216 625.56 84.8987 625.965 85.336C626.371 85.7733 626.893 85.992 627.533 85.992C627.939 85.992 628.312 85.9333 628.653 85.816C628.995 85.6987 629.352 85.512 629.725 85.256L630.365 86.136C629.469 86.84 628.488 87.192 627.421 87.192C626.248 87.192 625.331 86.808 624.669 86.04C624.019 85.272 623.693 84.216 623.693 82.872C623.693 81.9973 623.832 81.224 624.109 80.552C624.397 79.8693 624.803 79.336 625.325 78.952C625.859 78.568 626.483 78.376 627.197 78.376C628.317 78.376 629.176 78.744 629.773 79.48C630.371 80.216 630.669 81.2347 630.669 82.536ZM629.213 82.104C629.213 81.272 629.048 80.6373 628.717 80.2C628.387 79.7627 627.891 79.544 627.229 79.544C626.024 79.544 625.368 80.4293 625.261 82.2H629.213V82.104ZM636.988 78.376C637.756 78.376 638.353 78.6053 638.78 79.064C639.217 79.5227 639.436 80.152 639.436 80.952V87H637.964V81.16C637.964 80.5627 637.852 80.1413 637.628 79.896C637.404 79.6507 637.073 79.528 636.636 79.528C636.188 79.528 635.793 79.656 635.452 79.912C635.111 80.168 634.791 80.536 634.492 81.016V87H633.02V78.568H634.284L634.412 79.816C634.711 79.368 635.079 79.016 635.516 78.76C635.964 78.504 636.455 78.376 636.988 78.376ZM646.651 86.616C646.096 87 645.467 87.192 644.763 87.192C644.048 87.192 643.488 86.9893 643.083 86.584C642.688 86.168 642.491 85.5707 642.491 84.792V79.704H641.019V78.568H642.491V76.664L643.963 76.488V78.568H645.963L645.803 79.704H643.963V84.728C643.963 85.1653 644.038 85.4853 644.187 85.688C644.347 85.88 644.608 85.976 644.971 85.976C645.302 85.976 645.675 85.864 646.091 85.64L646.651 86.616ZM654.011 75.976V85.672H658.539L658.363 87H652.491V75.976H654.011ZM663.141 78.376C664.325 78.376 665.242 78.7707 665.893 79.56C666.554 80.3493 666.885 81.4213 666.885 82.776C666.885 83.6507 666.736 84.424 666.437 85.096C666.138 85.7573 665.706 86.2747 665.141 86.648C664.576 87.0107 663.904 87.192 663.125 87.192C661.941 87.192 661.018 86.7973 660.357 86.008C659.696 85.2187 659.365 84.1467 659.365 82.792C659.365 81.9173 659.514 81.1493 659.813 80.488C660.112 79.816 660.544 79.2987 661.109 78.936C661.674 78.5627 662.352 78.376 663.141 78.376ZM663.141 79.56C661.68 79.56 660.949 80.6373 660.949 82.792C660.949 84.936 661.674 86.008 663.125 86.008C664.576 86.008 665.301 84.9307 665.301 82.776C665.301 80.632 664.581 79.56 663.141 79.56ZM672.389 78.376C672.89 78.376 673.349 78.4507 673.765 78.6C674.181 78.7387 674.581 78.968 674.965 79.288L674.261 80.216C673.962 80.0027 673.669 79.848 673.381 79.752C673.104 79.6453 672.794 79.592 672.453 79.592C671.77 79.592 671.237 79.864 670.853 80.408C670.48 80.952 670.293 81.7573 670.293 82.824C670.293 83.8907 670.48 84.68 670.853 85.192C671.226 85.6933 671.76 85.944 672.453 85.944C672.784 85.944 673.088 85.896 673.365 85.8C673.642 85.6933 673.952 85.528 674.293 85.304L674.965 86.264C674.197 86.8827 673.338 87.192 672.389 87.192C671.248 87.192 670.346 86.808 669.685 86.04C669.034 85.272 668.709 84.2107 668.709 82.856C668.709 81.96 668.858 81.176 669.157 80.504C669.456 79.832 669.877 79.3093 670.421 78.936C670.976 78.5627 671.632 78.376 672.389 78.376ZM682.481 85.032C682.481 85.3733 682.54 85.6293 682.657 85.8C682.775 85.96 682.951 86.0827 683.185 86.168L682.849 87.192C682.412 87.1387 682.06 87.016 681.793 86.824C681.527 86.632 681.329 86.3333 681.201 85.928C680.636 86.7707 679.799 87.192 678.689 87.192C677.857 87.192 677.201 86.9573 676.721 86.488C676.241 86.0187 676.001 85.4053 676.001 84.648C676.001 83.752 676.321 83.064 676.961 82.584C677.612 82.104 678.529 81.864 679.713 81.864H681.009V81.24C681.009 80.6427 680.865 80.216 680.577 79.96C680.289 79.704 679.847 79.576 679.249 79.576C678.631 79.576 677.873 79.7253 676.977 80.024L676.609 78.952C677.655 78.568 678.625 78.376 679.521 78.376C680.513 78.376 681.255 78.6213 681.745 79.112C682.236 79.592 682.481 80.28 682.481 81.176V85.032ZM679.025 86.088C679.868 86.088 680.529 85.6507 681.009 84.776V82.84H679.905C678.348 82.84 677.569 83.416 677.569 84.568C677.569 85.0693 677.692 85.448 677.937 85.704C678.183 85.96 678.545 86.088 679.025 86.088ZM689.76 86.616C689.206 87 688.576 87.192 687.872 87.192C687.158 87.192 686.598 86.9893 686.192 86.584C685.798 86.168 685.6 85.5707 685.6 84.792V79.704H684.128V78.568H685.6V76.664L687.072 76.488V78.568H689.072L688.912 79.704H687.072V84.728C687.072 85.1653 687.147 85.4853 687.296 85.688C687.456 85.88 687.718 85.976 688.08 85.976C688.411 85.976 688.784 85.864 689.2 85.64L689.76 86.616ZM692.758 78.568V87H691.286V78.568H692.758ZM692.006 74.52C692.315 74.52 692.566 74.616 692.758 74.808C692.95 75 693.046 75.24 693.046 75.528C693.046 75.816 692.95 76.056 692.758 76.248C692.566 76.4293 692.315 76.52 692.006 76.52C691.707 76.52 691.462 76.4293 691.27 76.248C691.078 76.056 690.982 75.816 690.982 75.528C690.982 75.24 691.078 75 691.27 74.808C691.462 74.616 691.707 74.52 692.006 74.52ZM698.969 78.376C700.153 78.376 701.071 78.7707 701.721 79.56C702.383 80.3493 702.713 81.4213 702.713 82.776C702.713 83.6507 702.564 84.424 702.265 85.096C701.967 85.7573 701.535 86.2747 700.969 86.648C700.404 87.0107 699.732 87.192 698.953 87.192C697.769 87.192 696.847 86.7973 696.185 86.008C695.524 85.2187 695.193 84.1467 695.193 82.792C695.193 81.9173 695.343 81.1493 695.641 80.488C695.94 79.816 696.372 79.2987 696.937 78.936C697.503 78.5627 698.18 78.376 698.969 78.376ZM698.969 79.56C697.508 79.56 696.777 80.6373 696.777 82.792C696.777 84.936 697.503 86.008 698.953 86.008C700.404 86.008 701.129 84.9307 701.129 82.776C701.129 80.632 700.409 79.56 698.969 79.56ZM709.113 78.376C709.881 78.376 710.478 78.6053 710.905 79.064C711.342 79.5227 711.561 80.152 711.561 80.952V87H710.089V81.16C710.089 80.5627 709.977 80.1413 709.753 79.896C709.529 79.6507 709.198 79.528 708.761 79.528C708.313 79.528 707.918 79.656 707.577 79.912C707.236 80.168 706.916 80.536 706.617 81.016V87H705.145V78.568H706.409L706.537 79.816C706.836 79.368 707.204 79.016 707.641 78.76C708.089 78.504 708.58 78.376 709.113 78.376Z" fill="white"/>
</svg>
