<svg width="114" height="385" viewBox="0 0 114 385" fill="none" xmlns="http://www.w3.org/2000/svg">
<path d="M39.7064 1.39343C38.443 8.02647 38.1127 14.1582 38.1127 20.8722C38.1127 28.1158 40.6661 33.9071 41.3002 40.8823C42.1017 49.6997 55.931 56.3455 62.3727 61.0694C72.5393 68.5249 83.2395 73.6696 90.7055 84.9753C97.6029 95.4199 98.6741 111.215 98.6741 123.579C98.6741 137.79 78.7765 140.047 67.7737 140.047C64.0933 140.047 60.0799 140.519 56.4405 139.959C51.5343 139.204 47.8358 135.364 42.5397 134.558C27.6914 132.298 3.85097 133.023 1.63421 152.974C-0.721889 174.179 4.3229 206.06 26.9567 214.952C38.6115 219.531 52.0292 223.186 59.1853 234.431C68.5826 249.198 62.8003 260.146 60.0707 275.159C58.97 281.213 58.4359 287.206 58.8311 293.399C59.451 303.11 72.5447 307.855 79.3724 312.7C89.7382 320.057 99.7261 326.753 108.059 336.872C112.741 342.556 114.013 361.819 108.768 367.064C101.681 374.15 80.692 371.91 70.784 371.048C64.1212 370.469 58.5187 367.949 51.5708 367.949C45.4412 367.949 35.9929 379.632 31.7378 383.887" stroke="white" stroke-width="2" stroke-linecap="round" stroke-linejoin="round"/>
</svg>
