<svg width="118" height="279" viewBox="0 0 118 279" fill="none" xmlns="http://www.w3.org/2000/svg">
<path d="M70.1128 1.58087C67.2006 23.908 84.2884 31.9844 103.227 36.2886C110.771 38.0033 115.205 43.5708 115.977 51.5175C117.515 67.3677 117.654 74.5794 100.925 76.1316C87.7523 77.3538 74.1295 76.4858 60.9046 76.4858C43.8703 76.4858 26.1092 74.1197 13.4471 87.996C5.82201 96.3523 -1.41147 110.686 2.29109 122.35C6.78688 136.511 28.9567 143.071 40.5404 149.797C56.471 159.047 69.4265 165.346 71.3523 185.567C72.4257 196.837 72.0717 203.588 63.7379 211.067C57.5228 216.644 50.2506 214.179 44.2591 218.327C38.2904 222.459 39.8321 233.452 39.8321 239.577C39.8321 252.266 33.8888 267.732 19.1137 267.732C11.3281 267.732 5.96004 270.729 1.58277 277.295" stroke="white" stroke-width="2" stroke-linecap="round" stroke-linejoin="round"/>
</svg>
