<svg width="370" height="147" viewBox="0 0 370 147" fill="none" xmlns="http://www.w3.org/2000/svg">
<path d="M368.113 1.58087C361.372 4.46993 352.424 8.28635 349.342 15.5702C347.103 20.8627 339.089 27.6228 334.29 30.622C313.604 43.5513 283.895 50.1128 262.927 34.6949C258.301 31.293 250.171 27.2046 244.334 27.0804C242.324 27.0377 225.03 25.0834 223.438 27.7887C221.229 31.5444 221.078 41.9089 220.251 46.5592C218.015 59.1378 218.991 69.0909 210.246 79.5847C201.551 90.0188 190.555 88.3373 180.319 94.9906C173.228 99.5999 176.866 118.617 176.866 125.626C176.866 141.72 157.626 142.49 144.195 143.953C124.563 146.091 108.518 147.608 94.7895 132.355C85.46 121.988 79.8715 117.923 65.3942 117.923C56.7044 117.923 45.1099 115.955 36.5302 118.1C29.1178 119.953 19.539 129.651 13.4212 134.657C9.04564 138.237 3.66799 137.089 1.55682 143.422" stroke="white" stroke-width="2" stroke-linecap="round" stroke-linejoin="round"/>
</svg>
